<svg id="Layer_1" data-name="Layer 1" xmlns="http://www.w3.org/2000/svg" viewBox="0 0 491 537.83"><defs><style>.cls-1{fill:#412649;}.cls-2{fill:#e6e7e8;}.cls-3{fill:#e6e6e6;}</style></defs><title>BobcatLogo</title><circle class="cls-1" cx="245.5" cy="268.91" r="242.28"/><path class="cls-2" d="M359.85,263.9C366,244.39,365,251,397.61,212.54c-7.59,1-17.28,2-24.49,3,5.36-7.31,15.73-19.3,22.25-26.81-22.52,0-40.71.15-53,1.15l6.64,15.23,3.3,7.55-6.21,5.41c-1.57,1.37-39.26,33.59-102.52,33.59-64.65,0-95.72-33.06-97-34.46l-5-5.39,2.93-6.7,6.47-14.82c-12.57-1.21-31.37-3.66-55.43-3.62,6.52,7.51,16.89,21.74,22.25,29.05-7.21-1-16.9-4.26-24.5-5.23,32.64,38.45,31.59,34.09,37.77,53.6C110,300.3,117.44,340,138.55,372.45c-6.12,14.33-12.22,31.49-1.37,21.53a59.47,59.47,0,0,1,9.79-7c-6.56,14.81-17.47,36.84-5.49,25.85,3.75-3.44,10.88-6.55,16-9.26-8.81,11.3-30.07,39.65-13.58,30.07,15.42-9,43.86-10.55,47.76-10.73,17.47,10.16,36.17,16.28,53.82,16.7v-.18c17.83-.43,36.72-6.66,54.33-17,5.43.27,32.38,2.05,47.25,10.7,16.48,9.58-4.77-18.78-13.58-30.07,5.14,2.71,12.27,5.82,16,9.26,12,11,1.07-11-5.5-25.85a58.06,58.06,0,0,1,9.79,7c10.81,9.91,4.82-7.05-1.28-21.34C373.57,339.71,380.93,300.08,359.85,263.9ZM171.17,288.23c13.17-45.63,67.86-2.63,52.12,29.32-2.25,4.5-6.51,4.89-19.54,4.89C171.17,322.44,169.25,299.88,171.17,288.23Zm74.33,85.48v.18c-27.05-9.29-36.22-34.09,0-26.11v-.19C281.77,339.61,272.49,364.45,245.5,373.71Zm41.75-51.46c-13,0-17.29-.38-19.54-4.88-7.9-18.89,5.11-49.64,32.57-48.56C329,271.86,330.36,323.76,287.25,322.25Z"/><path class="cls-2" d="M301.21,115.87c-21.33-5.91-29.37-19.45-54.39-19.45S213.76,110,192.43,115.87c-14.69,4.07-49.27-4.28-45,12.44,2.32,9.2,15.23,30.25,20.54,38.66,1.4,2.22,2.27,3.57,2.27,3.57s37.43,15.72,76.62,15.72,76.62-15.72,76.62-15.72,1.08-1.67,2.78-4.37c5.57-8.87,17.78-28.94,20-37.86C350.48,111.59,315.9,119.94,301.21,115.87Zm-54.39,52.55a19.93,19.93,0,1,1,19.93-19.93A19.93,19.93,0,0,1,246.82,168.42Z"/><path class="cls-3" d="M275.11,193v44.51A162.31,162.31,0,0,0,296.18,232V189A205.83,205.83,0,0,1,275.11,193Z"/><path class="cls-3" d="M168.18,179.13l-5.56,12.75-7.74,17.71s8.08,8.8,24.82,17V183.11C172.52,180.83,168.18,179.13,168.18,179.13Z"/><path class="cls-3" d="M246.82,194.85c-3.51,0-7-.14-10.53-.38v45.78c2.39.1,4.82.17,7.33.17,4.74,0,9.31-.21,13.74-.57V194.58C253.94,194.75,250.44,194.85,246.82,194.85Z"/><path class="cls-3" d="M197.46,188.12v45.52a141.77,141.77,0,0,0,21.07,4.89v-46.1C211,191.23,203.88,189.71,197.46,188.12Z"/><path class="cls-3" d="M338.76,209.59l-8-18.32-5.3-12.14a108.85,108.85,0,0,1-11.52,4.66v41.05C330,217.19,338.76,209.59,338.76,209.59Z"/><path class="cls-1" d="M179.7,183.11v43.48a127.8,127.8,0,0,0,17.76,7V188.12C190.56,186.41,184.5,184.63,179.7,183.11Z"/><path class="cls-1" d="M228.71,193.81c-3.45-.38-6.85-.85-10.18-1.38v46.1a160.66,160.66,0,0,0,17.76,1.72V194.47Q232.48,194.22,228.71,193.81Z"/><path class="cls-1" d="M265,194.07q-3.75.31-7.67.51v45.27a164.51,164.51,0,0,0,17.75-2.38V193C271.88,193.39,268.51,193.77,265,194.07Z"/><path class="cls-1" d="M313.94,183.79A182.69,182.69,0,0,1,296.18,189v43a156.57,156.57,0,0,0,17.76-7.15Z"/></svg>