<svg id="Layer_1" data-name="Layer 1" xmlns="http://www.w3.org/2000/svg" viewBox="0 0 771.91 379.94"><defs><style>.cls-1{fill:#4d2e59;}.cls-2{fill:#412649;}.cls-3{fill:#5f376c;}.cls-4{fill:#382242;}</style></defs><title>BottomBar</title><rect class="cls-1" x="284.86" y="74.58" width="75.57" height="139.92"/><rect class="cls-1" x="20.69" y="85.14" width="127.16" height="143.39"/><rect class="cls-1" x="486.29" y="70.74" width="96.47" height="133.12"/><polygon class="cls-1" points="469.11 93.43 401.5 63.58 401.5 228.53 469.11 228.53 469.11 93.43"/><polygon class="cls-1" points="238.59 52.11 147.85 99.56 147.85 228.53 238.59 228.53 238.59 52.11"/><polygon class="cls-1" points="423.61 77.15 424.36 46.11 390.09 19.13 347.22 46.11 347.22 228.53 423.61 228.53 423.61 77.15"/><rect class="cls-1" x="207.04" y="26.96" width="94.11" height="201.57"/><rect class="cls-1" x="524.9" y="74.58" width="75.57" height="123.81"/><rect class="cls-1" x="378.94" y="99.56" width="90.17" height="93.33"/><polygon class="cls-1" points="731.55 35.83 641.53 64.05 641.53 212.43 731.55 212.43 731.55 35.83"/><polygon class="cls-1" points="48.29 60.27 -35.73 18.32 -41.74 236.87 48.29 236.87 48.29 60.27"/><polygon class="cls-1" points="663.65 74.41 664.39 46.11 587.25 46.11 587.25 212.43 663.65 212.43 663.65 74.41"/><rect class="cls-1" x="447.08" y="10.85" width="94.11" height="201.57"/><rect class="cls-1" x="713.69" y="87.83" width="94.11" height="201.57"/><rect class="cls-2" x="27.33" y="176.08" width="95.68" height="155.85"/><rect class="cls-2" x="-42.46" y="177.01" width="95.68" height="155.85"/><rect class="cls-2" x="94.74" y="143.29" width="161" height="188.65"/><rect class="cls-2" x="581.83" y="164.69" width="140.67" height="167.03"/><rect class="cls-2" x="683.63" y="164.27" width="137.05" height="167.67"/><rect class="cls-2" x="401.03" y="150.59" width="188.66" height="181.16"/><polygon class="cls-2" points="370.63 148.57 213.66 174.66 207.58 331.93 370.63 331.93 370.63 148.57"/><polygon class="cls-2" points="671.21 148.57 594.59 128.83 508.16 148.57 508.16 331.93 671.21 331.93 671.21 148.57"/><rect class="cls-2" x="330.68" y="95.57" width="119.15" height="236.37"/><path class="cls-3" d="M397.33,208.94a21.71,21.71,0,0,0-21.64,21.65v72.14a7.24,7.24,0,0,0,7.21,7.21h7.58a25.13,25.13,0,0,0,49.77,0h22.38a25.12,25.12,0,0,0,49.76,0H520a7.24,7.24,0,0,0,7.22-7.21V259.44a6.75,6.75,0,0,0-1.09-3.75l-22.43-36.43a21.48,21.48,0,0,0-18.47-10.32Zm0,14.43H419v36.07H390.12V230.59A7.23,7.23,0,0,1,397.33,223.37Zm36.07,0h28.86v36.07H433.4Zm43.29,0h8.51a7.31,7.31,0,0,1,6.2,3.47l20.13,32.6H476.69Zm-61.32,72.14a10.83,10.83,0,1,1-10.82,10.82A10.71,10.71,0,0,1,415.37,295.51Zm72.14,0a10.83,10.83,0,1,1-10.82,10.82A10.71,10.71,0,0,1,487.51,295.51Z"/><rect class="cls-3" x="586.3" y="195.26" width="13.71" height="136.32"/><rect class="cls-3" x="560.89" y="195.26" width="39.12" height="46.14" rx="13.64"/><rect class="cls-2" x="576.89" y="206.66" width="13.14" height="4.19"/><rect class="cls-2" x="572.79" y="215.66" width="17.23" height="4.19"/><rect class="cls-2" x="576.89" y="224.66" width="13.14" height="4.19"/><path class="cls-3" d="M280.61,263.73a7.56,7.56,0,1,0,7.56,7.56A7.57,7.57,0,0,0,280.61,263.73Zm-19.47,20.64-3.93,11.11c-.75,2.1.82,4.3,3.38,4.72h0a4.54,4.54,0,0,0,5.09-2.59l3.94-11.1c.75-2.11-.82-4.3-3.38-4.73h0A4.54,4.54,0,0,0,261.14,284.37Zm13.61-5.12a7.54,7.54,0,0,0-7.41,6.17l-3.64,14.45,0,.06a7.4,7.4,0,0,0-.3,2,7.52,7.52,0,0,0,2.77,5.81v0l11.41,10.86,6.44,15.3.78,1.95,7-2.81-7.16-17.89h0l-6.57-10.76.17-.66c0-.14.08-.28.11-.42l2.07-8.26,3.89,5.48,13.12,4.77,2.59-7.1-10.91-4-7.63-10.75A7.55,7.55,0,0,0,274.75,279.25ZM263.61,313l-1.83,5.43-9.56,13.19,6.12,4.44,9.9-13.66a3.9,3.9,0,0,0,.53-1l.85-2.55Z"/><polyline class="cls-3" points="263.62 312.96 264.87 306.35 271.64 312.96 269.63 318.8"/><polyline class="cls-3" points="272.99 281.71 277.96 273.94 282.26 275.17 279.49 283.77"/><rect class="cls-4" y="331.58" width="771.91" height="48.36"/></svg>