<svg id="Layer_1" data-name="Layer 1" xmlns="http://www.w3.org/2000/svg" viewBox="0 0 491 537.83"><defs><style>.cls-1{fill:#e6e7e8;}.cls-2{fill:#e6e6e6;}</style></defs><title>Hero</title><path class="cls-1" d="M393.3,263.61c8-25.21,6.63-16.68,48.81-66.37-9.82,1.25-22.34,2.53-31.66,3.85,6.93-9.44,20.33-24.93,28.76-34.64-29.11,0-52.62.18-68.46,1.49l8.59,19.68,4.26,9.75-8,7c-2,1.77-50.75,43.42-132.51,43.42-83.57,0-123.72-42.73-125.39-44.55l-6.39-7,3.78-8.66,8.37-19.16c-16.26-1.56-40.55-4.73-71.65-4.68,8.42,9.71,21.83,28.1,28.76,37.55-9.32-1.32-21.84-5.51-31.66-6.76,42.18,49.7,40.82,44.06,48.81,69.27C70.41,310.67,80,362,107.27,403.92c-7.92,18.52-15.8,40.71-1.77,27.83a75.92,75.92,0,0,1,12.66-9.1c-8.49,19.14-22.59,47.61-7.11,33.41,4.85-4.45,14.06-8.46,20.71-12C120.37,458.69,92.9,495.34,114.2,483c19.94-11.59,56.7-13.64,61.74-13.87,22.58,13.12,46.74,21,69.56,21.59v-.23c23.05-.57,47.47-8.62,70.23-22,7,.35,41.85,2.66,61.07,13.83,21.3,12.38-6.17-24.27-17.56-38.87,6.65,3.51,15.86,7.52,20.71,12,15.47,14.2,1.38-14.27-7.11-33.41a76.18,76.18,0,0,1,12.66,9.1c14,12.82,6.22-9.11-1.67-27.58C411,361.6,420.55,310.38,393.3,263.61ZM149.43,295.07c17-59,87.71-3.41,67.36,37.89-2.91,5.82-8.42,6.31-25.26,6.31C149.43,339.27,147,310.13,149.43,295.07ZM245.5,405.55v.23c-35-12-46.81-44.07,0-33.75v-.24C292.37,361.48,280.39,393.58,245.5,405.55Zm54-66.51c-16.84,0-22.35-.49-25.26-6.31-10.2-24.42,6.61-64.16,42.1-62.76C353.43,273.91,355.18,341,299.46,339Z"/><path class="cls-1" d="M317.51,72.29c-27.57-7.64-38-25.14-70.3-25.14s-42.73,17.5-70.3,25.14c-19,5.26-63.69-5.54-58.22,16.07,3,11.9,19.69,39.1,26.54,50,1.82,2.87,3,4.62,3,4.62s48.37,20.32,99,20.32,99-20.32,99-20.32,1.4-2.16,3.59-5.64c7.2-11.47,23-37.41,25.9-48.95C381.19,66.75,336.49,77.55,317.51,72.29Zm-70.3,67.92A25.76,25.76,0,1,1,273,114.45,25.76,25.76,0,0,1,247.21,140.21Z"/><path class="cls-2" d="M283.78,171.92v57.54A209.79,209.79,0,0,0,311,222.37V166.83A264.8,264.8,0,0,1,283.78,171.92Z"/><path class="cls-2" d="M145.57,154.05l-7.2,16.48-10,22.9s10.45,11.37,32.08,22v-56.2C151.18,156.25,145.57,154.05,145.57,154.05Z"/><path class="cls-2" d="M247.21,174.37c-4.54,0-9.09-.19-13.62-.49v59.17c3.1.13,6.24.22,9.48.22,6.13,0,12-.28,17.76-.74V174C256.41,174.24,251.88,174.37,247.21,174.37Z"/><path class="cls-2" d="M183.41,165.67v58.84a184.8,184.8,0,0,0,27.23,6.32V171.24C200.93,169.7,191.7,167.73,183.41,165.67Z"/><path class="cls-2" d="M366,193.43,355.7,169.75l-6.85-15.7a140.56,140.56,0,0,1-14.89,6v53.06C354.76,203.25,366,193.43,366,193.43Z"/></svg>