<svg id="Layer_1" data-name="Layer 1" xmlns="http://www.w3.org/2000/svg" viewBox="0 0 491 537.83"><defs><style>.cls-1{fill:#e6e7e8;}.cls-2{fill:#e6e6e6;}</style></defs><title>LandingPageHero</title><path class="cls-1" d="M322.6,138.39c4.17-13.15,3.46-8.7,25.47-34.63-5.13.66-11.66,1.32-16.52,2,3.62-4.92,10.61-13,15-18.07-15.18,0-27.44.1-35.71.78l4.48,10.26,2.23,5.09-4.19,3.65c-1.06.93-26.48,22.65-69.13,22.65-43.59,0-64.54-22.29-65.41-23.24l-3.34-3.63,2-4.52,4.36-10c-8.48-.81-21.15-2.47-37.38-2.44,4.4,5.06,11.39,14.66,15,19.59-4.86-.69-11.4-2.88-16.52-3.53,22,25.93,21.3,23,25.46,36.14-14.23,24.43-9.24,51.19,5,73.08-4.13,9.66-8.25,21.23-.93,14.51a39.8,39.8,0,0,1,6.61-4.74c-4.43,10-11.79,24.83-3.71,17.43,2.53-2.32,7.33-4.42,10.8-6.25-5.94,7.62-20.27,26.74-9.16,20.28,10.41-6,29.58-7.12,32.21-7.24,11.78,6.85,24.39,11,36.29,11.27v-.13c12-.29,24.76-4.49,36.64-11.46,3.65.19,21.83,1.39,31.85,7.22,11.12,6.46-3.21-12.66-9.15-20.28,3.46,1.83,8.27,3.93,10.8,6.25,8.07,7.4.72-7.45-3.71-17.43a38.76,38.76,0,0,1,6.6,4.75c7.29,6.68,3.25-4.76-.86-14.39C331.86,189.51,336.82,162.78,322.6,138.39ZM195.38,154.8c8.88-30.77,45.76-1.78,35.14,19.77-1.51,3-4.39,3.29-13.17,3.29C195.38,177.86,194.09,162.65,195.38,154.8Zm50.12,57.63v.13c-18.24-6.27-24.42-23,0-17.61v-.13C270,189.44,263.7,206.19,245.5,212.43Zm28.15-34.69c-8.78,0-11.66-.26-13.18-3.3-5.32-12.73,3.45-33.47,22-32.74C301.81,143.76,302.72,178.76,273.65,177.74Z"/><path class="cls-1" d="M137.69,309H115.46v55.87H104.93V309H82.7V299.9h55Z"/><path class="cls-1" d="M172.91,315.64l-1.68,9.64A12.65,12.65,0,0,0,165,324a11.5,11.5,0,0,0-6,1.67,12.82,12.82,0,0,0-4.62,5,16.66,16.66,0,0,0-1.82,8.06v26.07H142.12V315.64h8.95l.88,8.85q4.14-9.84,15.55-9.84A12.24,12.24,0,0,1,172.91,315.64Z"/><path class="cls-1" d="M227.89,357.54l-.69,7.08a14.8,14.8,0,0,1-6.09,1.18,11.92,11.92,0,0,1-6.74-1.67,8.29,8.29,0,0,1-3.3-5.61,14.75,14.75,0,0,1-6.69,5.37,24.7,24.7,0,0,1-9.93,1.91q-7.19,0-11.61-3.34a11.25,11.25,0,0,1-4.43-9.54,12.26,12.26,0,0,1,4.82-9.79q4.83-4,14.37-5.66l12.49-2.16v-2.66a9.55,9.55,0,0,0-2.66-7.13,10.11,10.11,0,0,0-7.38-2.6q-9.74,0-12.69,8.85l-8.16-4.33a16.32,16.32,0,0,1,7.23-9.34,24.67,24.67,0,0,1,13.43-3.45q9.54,0,15.15,4.43t5.6,13V354.3a3.88,3.88,0,0,0,.84,2.75,3.73,3.73,0,0,0,2.8.88A14.47,14.47,0,0,0,227.89,357.54Zm-21.83-2.26a7.77,7.77,0,0,0,4-6.79v-5.9l-10.72,2.16a19.66,19.66,0,0,0-7.58,2.76,5.53,5.53,0,0,0-2.46,4.72,4.88,4.88,0,0,0,1.92,4.18,9,9,0,0,0,5.46,1.43A17.14,17.14,0,0,0,206.06,355.28Z"/><path class="cls-1" d="M277.62,319.37q5.16,4.72,5.16,13.58v31.87H272.26V336.29q0-13-10.53-13a13.11,13.11,0,0,0-9.44,3.79q-3.94,3.78-3.94,11.65v26.07H237.83V315.64h9.34l.5,8.16a15.92,15.92,0,0,1,6.78-6.88,20.9,20.9,0,0,1,9.84-2.27Q272.45,314.65,277.62,319.37Z"/><path class="cls-1" d="M303.29,363.25a18.16,18.16,0,0,1-8.7-7.77l7.08-6.1a12.14,12.14,0,0,0,5.8,6.19,20.8,20.8,0,0,0,9.45,2q5,0,7.76-1.62a4.85,4.85,0,0,0,2.76-4.28,4.27,4.27,0,0,0-2.56-3.79q-2.55-1.43-8.85-2.7-10.92-2.07-15.35-5.51t-4.42-9.74a12.83,12.83,0,0,1,2.46-7.53,17,17,0,0,1,7.13-5.6,26.63,26.63,0,0,1,11.07-2.12q8.16,0,13.08,2.71a17.79,17.79,0,0,1,7.57,8.41l-7.47,5.51a13,13,0,0,0-5-6.35,15,15,0,0,0-8.12-2,13.53,13.53,0,0,0-7.33,1.82q-2.9,1.81-2.9,4.18a4.77,4.77,0,0,0,2.61,4.23q2.61,1.58,9.49,2.85,10.42,1.88,14.76,5.31A11.64,11.64,0,0,1,338,351a12.68,12.68,0,0,1-5.71,10.72q-5.7,4.14-15.74,4.13A32.39,32.39,0,0,1,303.29,363.25Z"/><path class="cls-1" d="M350.85,305.65a6.26,6.26,0,0,1-1.87-4.87,6.12,6.12,0,0,1,1.87-4.82,7.57,7.57,0,0,1,5.21-1.67,7.39,7.39,0,0,1,5.17,1.67,6.24,6.24,0,0,1,1.82,4.82,6.38,6.38,0,0,1-1.82,4.87,7.22,7.22,0,0,1-5.17,1.72A7.39,7.39,0,0,1,350.85,305.65Zm10.43,59.17H350.75V315.64h10.53Z"/><path class="cls-1" d="M409.58,361.57a17.44,17.44,0,0,1-5.76,3.1,22.89,22.89,0,0,1-7.33,1.13q-6.78,0-10.87-3.39t-4.18-10.57V323.9H372.1v-8.26h9.34V304.13L392,301.18v14.46h17.21v8.26H392v26.17a6.71,6.71,0,0,0,1.92,5.26,7.58,7.58,0,0,0,5.26,1.72,11.45,11.45,0,0,0,8-3.15Z"/><path class="cls-1" d="M56,394H92.47q27.06.11,27.05,20.23a16.62,16.62,0,0,1-3.86,11.13q-3.87,4.54-11.37,5.69v.11q8.42,1.14,12.79,5.85a16.63,16.63,0,0,1,4.37,11.76q0,9.78-6.93,15T94.18,469H56Zm33,30.68q10.58,0,10.57-8.18T89,408.31H74.86v16.36Zm1.93,30.57q5.24,0,7.9-2.16a7.57,7.57,0,0,0,2.67-6.25,7.28,7.28,0,0,0-2.67-6.08q-2.67-2.1-7.9-2.1h-16v16.59Z"/><path class="cls-1" d="M181.74,418.82q7.9,7.79,7.9,21.76t-7.9,21.77q-7.89,7.78-22.1,7.78t-22.11-7.78q-7.89-7.78-7.89-21.77t7.89-21.76q7.91-7.79,22.11-7.79T181.74,418.82Zm-30.17,9.72q-2.61,3.75-2.61,12t2.61,12.05q2.61,3.75,8.07,3.75c3.64,0,6.32-1.25,8.07-3.75s2.61-6.52,2.61-12.05-.87-9.54-2.61-12-4.43-3.76-8.07-3.76S153.31,426,151.57,428.54Z"/><path class="cls-1" d="M254.42,418.88q6.25,7.83,6.25,21.93,0,13.86-6.14,21.59t-17.27,7.73a19.32,19.32,0,0,1-11.65-3.58,21.2,21.2,0,0,1-7.33-9.6l-.57,12H200.78V388.08H220.1v33.64A18.08,18.08,0,0,1,237.26,411Q248.17,411,254.42,418.88Zm-16,33.29q2.79-3.75,2.79-11.59T238.45,429a9.25,9.25,0,0,0-7.9-3.75,8.89,8.89,0,0,0-7.72,3.86Q220.1,433,220.1,440v1.14q0,7.28,2.78,11a9,9,0,0,0,7.67,3.75A9.25,9.25,0,0,0,238.45,452.17Z"/><path class="cls-1" d="M318.63,415.92a20.6,20.6,0,0,1,8.07,12.73l-18,5.91q-1.14-9.78-8.75-9.78-11.25,0-11.25,16,0,15.57,11.25,15.57,8.07,0,9.43-9.21l17.39,5.57a18.44,18.44,0,0,1-8.24,12.56q-7,4.83-18.47,4.83-14.76,0-22.73-7.73t-7.95-21.82q0-14,7.9-21.76t22-7.79Q312.15,411,318.63,415.92Z"/><path class="cls-1" d="M395.45,457.52,394,468.31a15.8,15.8,0,0,1-7.73,1.82q-12.27,0-14.66-8.75-5.11,8.75-20.23,8.75-8.52,0-13.07-3.64t-4.55-10.57a14.84,14.84,0,0,1,5.18-11.76q5.16-4.49,17-6.87l12.84-2.5v-2.05a8.57,8.57,0,0,0-2.16-6.14,7.78,7.78,0,0,0-5.91-2.27,11.41,11.41,0,0,0-7.05,2.05q-2.73,2-3.52,6.7l-15.68-4.54a19,19,0,0,1,8.18-12.9q6.7-4.61,18.07-4.61,13.29,0,20.23,5.46t6.93,16.36v20.69q0,4.43,4.09,4.43A11.45,11.45,0,0,0,395.45,457.52Zm-29.88-2.11a6.83,6.83,0,0,0,3.18-5.85v-4.89l-9.21,2.16a13.16,13.16,0,0,0-5.17,2.22,4.58,4.58,0,0,0-1.53,3.69,4.51,4.51,0,0,0,1.47,3.64,6.18,6.18,0,0,0,4.1,1.25A12.24,12.24,0,0,0,365.57,455.41Z"/><path class="cls-1" d="M442.05,465.81a24.06,24.06,0,0,1-7.22,3.13,33.49,33.49,0,0,1-8.8,1.19q-10.12,0-15.46-4.32T405.11,452v-26h-9.77V412.17h9.77V399.44l19.32-5.34v18.07h17.05v13.75H424.43v22.84q0,7.62,7.5,7.62a13.77,13.77,0,0,0,8.19-2.5Z"/><path class="cls-1" d="M283.07,38.58c-14.39-4-19.81-13.12-36.68-13.12s-22.29,9.13-36.67,13.12c-9.91,2.74-33.23-2.89-30.38,8.38,1.57,6.21,10.28,20.4,13.85,26.07.95,1.5,1.54,2.41,1.54,2.41S220,86,246.39,86s51.66-10.6,51.66-10.6.73-1.13,1.87-2.94c3.76-6,12-19.52,13.52-25.54C316.29,35.69,293,41.32,283.07,38.58ZM246.39,74a13.44,13.44,0,1,1,13.44-13.44A13.44,13.44,0,0,1,246.39,74Z"/><path class="cls-2" d="M265.47,90.56v30a108.57,108.57,0,0,0,14.21-3.7v-29A140.32,140.32,0,0,1,265.47,90.56Z"/><path class="cls-2" d="M193.37,81.23l-3.76,8.6-5.21,11.94s5.45,5.94,16.73,11.46V83.91C196.29,82.38,193.37,81.23,193.37,81.23Z"/><path class="cls-2" d="M246.39,91.83c-2.37,0-4.74-.1-7.1-.25v30.86c1.61.07,3.25.12,4.94.12,3.2,0,6.28-.14,9.26-.39V91.65C251.19,91.76,248.83,91.83,246.39,91.83Z"/><path class="cls-2" d="M213.11,87.29V118a95.69,95.69,0,0,0,14.2,3.29V90.2C222.25,89.39,217.43,88.37,213.11,87.29Z"/><path class="cls-2" d="M308.38,101.77,303,89.42l-3.58-8.19a74.14,74.14,0,0,1-7.76,3.15v27.68C302.5,106.9,308.38,101.77,308.38,101.77Z"/></svg>